<?xml version="1.0"?>
<svg xmlns="http://www.w3.org/2000/svg" data-name="Layer 1" viewBox="0 0 138.06 138.06" width="138.06" height="138.06"><defs><style>.cls-1{fill:#ed332b;stroke:#fff;stroke-miterlimit:10;stroke-width:2px;}.cls-2{fill:#fff;}</style></defs><g id="Layer_2" data-name="Layer 2"><g id="Layer_1-2" data-name="Layer 1-2"><rect class="cls-1" x="1" y="1" width="136.06" height="136.06"/><rect class="cls-2" x="63.1" y="51.78" width="8.95" height="40.67"/><path class="cls-2" d="M77.87,71.23v-.11a20.86,20.86,0,0,1,20.73-21h.6c7.32,0,11.73,2,16,5.57l-5.64,6.8c-3.13-2.61-5.92-4.13-10.63-4.13-6.5,0-11.67,5.76-11.67,12.67v.12c0,7.4,5.08,12.85,12.28,12.85A14.27,14.27,0,0,0,108,81.57V75.76H99V68h17.66V85.7a26.38,26.38,0,0,1-17.37,6.45c-12.67,0-21.38-8.89-21.38-20.92" transform="translate(1 1)"/><path class="cls-2" d="M39.24,74.52H31v8.76h8.49c4.36,0,6.59-1.3,6.59-4.26,0,0,.54-4.5-6.87-4.5m-.52-15.7H31v8.42h7.12c4.23.13,6.32-1.26,6.32-4.22,0,0,.68-4.3-5.75-4.2M22.5,51.13H41c4.55,0,7.14,1.29,9.45,3.53a10.29,10.29,0,0,1,2.73,6.89c0,4.49-1.43,6.69-4.27,8.28,4.6,1.76,6.49,4.75,6.49,10.09V80c-.4,7.19-5,11-14,11H22.5Z" transform="translate(1 1)"/><path class="cls-2" d="M74.86,35.92a8.29,8.29,0,1,1-8.29-8.29,8.29,8.29,0,0,1,8.29,8.29v0" transform="translate(1 1)"/></g></g></svg>
