<?xml version="1.0" encoding="utf-8"?>
<!-- Generator: Adobe Illustrator 27.3.1, SVG Export Plug-In . SVG Version: 6.00 Build 0)  -->
<svg version="1.1" id="Layer_1" xmlns="http://www.w3.org/2000/svg" xmlns:xlink="http://www.w3.org/1999/xlink" x="0px" y="0px"
	 viewBox="0 0 200 200" style="enable-background:new 0 0 200 200;" xml:space="preserve">
<style type="text/css">
	
		.st0{clip-path:url(#SVGID_00000009565721233282264300000006311850759845856656_);fill:url(#SVGID_00000040543529658768501630000015595742936956197798_);}
	
		.st1{clip-path:url(#SVGID_00000106149013738071235760000004001831970243380625_);fill:url(#SVGID_00000039107961341609910380000008993596038810431114_);}
	
		.st2{clip-path:url(#SVGID_00000096779549549525455410000004488681078518237069_);fill:url(#SVGID_00000054236952739656858000000010044300339444205226_);}
	
		.st3{clip-path:url(#SVGID_00000163782269580686054710000004990543871859084446_);fill:url(#SVGID_00000115496592244703968240000008288792158627062195_);}
	
		.st4{clip-path:url(#SVGID_00000133506208986502208320000006377630247502438309_);fill:url(#SVGID_00000135692716387186233390000015905526851245940913_);}
	
		.st5{clip-path:url(#SVGID_00000021815464140795590830000006105465485911823765_);fill:url(#SVGID_00000168816060057057046020000013557146503447931522_);}
	
		.st6{clip-path:url(#SVGID_00000068639997850682405910000005879116355925786259_);fill:url(#SVGID_00000098939337259436584580000017724795805690971815_);}
	
		.st7{clip-path:url(#SVGID_00000112628876807324127000000009615009787871832242_);fill:url(#SVGID_00000052093907574829445030000015294528718754201988_);}
	
		.st8{clip-path:url(#SVGID_00000049218255198176823580000007052745214242206120_);fill:url(#SVGID_00000172439527338230993430000000608769622404320665_);}
	
		.st9{clip-path:url(#SVGID_00000029741577335442792590000015924086740278497202_);fill:url(#SVGID_00000026859592939949293890000012874351392782879119_);}
</style>
<g>
	<defs>
		<path id="SVGID_1_" d="M93.04,166.28v19.14c7.25,0.46,15.7,0.82,21.76,4.38c4.67,2.75,7.76,6.13,9.53,10.2v-29.07
			c-5.32-1.5-12.34-1.94-16.36-3.5C103.42,165.66,98.12,165.78,93.04,166.28 M124.32,129.16V32.66L93.04,0v144.54
			c9.8-6.11,21.07-12.75,30.6-15.22C123.89,129.26,124.09,129.21,124.32,129.16z"/>
	</defs>
	<clipPath id="SVGID_00000073718927021708056420000012434695023776301976_">
		<use xlink:href="#SVGID_1_"  style="overflow:visible;"/>
	</clipPath>
	
		<linearGradient id="SVGID_00000005967143308253185270000004037832333945755789_" gradientUnits="userSpaceOnUse" x1="64.04" y1="187.9236" x2="144.6026" y2="29.2355">
		<stop  offset="0" style="stop-color:#0393CA"/>
		<stop  offset="0.14" style="stop-color:#008BD1"/>
		<stop  offset="0.88" style="stop-color:#00B4AC"/>
		<stop  offset="1" style="stop-color:#40BFC1"/>
	</linearGradient>
	
		<rect x="93.04" style="clip-path:url(#SVGID_00000073718927021708056420000012434695023776301976_);fill:url(#SVGID_00000005967143308253185270000004037832333945755789_);" width="31.28" height="200"/>
</g>
<g>
	<defs>
		<path id="SVGID_00000082342662905128917290000014041193268061073316_" d="M52.47,173.97v11.74c6.09,0.42,12.22,0.41,18.36,0.19
			c4.23-0.15,8.59-0.43,12.93-0.56V167.5c-5.26,0.94-10.54,2.41-15.67,3.59C62.74,172.32,57.66,173.35,52.47,173.97 M83.76,150.36
			V50.08L52.47,82.74v79.76c10.51-1.9,20.49-5.57,29.59-11.11C82.61,151.06,83.18,150.71,83.76,150.36z"/>
	</defs>
	<clipPath id="SVGID_00000036212120735995281620000017486767730373000873_">
		<use xlink:href="#SVGID_00000082342662905128917290000014041193268061073316_"  style="overflow:visible;"/>
	</clipPath>
	
		<linearGradient id="SVGID_00000111896964688223019550000003210363180692019120_" gradientUnits="userSpaceOnUse" x1="20.1532" y1="182.3301" x2="101.667" y2="73.1804">
		<stop  offset="0" style="stop-color:#0393CA"/>
		<stop  offset="0.14" style="stop-color:#008BD1"/>
		<stop  offset="0.88" style="stop-color:#00B4AC"/>
		<stop  offset="1" style="stop-color:#40BFC1"/>
	</linearGradient>
	
		<rect x="52.47" y="50.08" style="clip-path:url(#SVGID_00000036212120735995281620000017486767730373000873_);fill:url(#SVGID_00000111896964688223019550000003210363180692019120_);" width="31.29" height="136.05"/>
</g>
<g>
	<defs>
		<path id="SVGID_00000130644358469785523660000007683472300758698651_" d="M12.15,167.71v5.15c6.99,6.63,16.78,9.08,27.49,11.2
			c1.26,0.25,2.53,0.47,3.8,0.67v-10.18c-0.82,0.01-1.64,0.02-2.48,0C30.51,174.31,20.25,173.58,12.15,167.71 M37.53,164.04
			c1.98-0.04,3.95-0.15,5.9-0.31V87.57l-31.29,32.66v38.24C18.97,163.27,27.34,164.27,37.53,164.04z"/>
	</defs>
	<clipPath id="SVGID_00000075150639856864103920000003308732622906800530_">
		<use xlink:href="#SVGID_00000130644358469785523660000007683472300758698651_"  style="overflow:visible;"/>
	</clipPath>
	
		<linearGradient id="SVGID_00000147922629519304320350000015283071460659229332_" gradientUnits="userSpaceOnUse" x1="-21.4686" y1="173.2583" x2="62.0827" y2="110.3071">
		<stop  offset="0" style="stop-color:#0393CA"/>
		<stop  offset="0.14" style="stop-color:#008BD1"/>
		<stop  offset="0.88" style="stop-color:#00B4AC"/>
		<stop  offset="1" style="stop-color:#40BFC1"/>
	</linearGradient>
	
		<rect x="12.15" y="87.57" style="clip-path:url(#SVGID_00000075150639856864103920000003308732622906800530_);fill:url(#SVGID_00000147922629519304320350000015283071460659229332_);" width="31.29" height="97.16"/>
</g>
<g>
	<defs>
		<polygon id="SVGID_00000020385471883928352070000006235899376845350077_" points="139.2,187.89 181.7,149.37 178.52,144.67 
			133.42,185.55 		"/>
	</defs>
	<clipPath id="SVGID_00000003062800942999177280000002768955565762310046_">
		<use xlink:href="#SVGID_00000020385471883928352070000006235899376845350077_"  style="overflow:visible;"/>
	</clipPath>
	
		<linearGradient id="SVGID_00000000184677145779612390000011794993727710486707_" gradientUnits="userSpaceOnUse" x1="158.6607" y1="191.024" x2="155.7254" y2="124.924">
		<stop  offset="0" style="stop-color:#35336A"/>
		<stop  offset="0.1" style="stop-color:#35336A"/>
		<stop  offset="0.83" style="stop-color:#4F71B6"/>
		<stop  offset="1" style="stop-color:#4F71B6"/>
	</linearGradient>
	
		<rect x="133.42" y="144.67" style="clip-path:url(#SVGID_00000003062800942999177280000002768955565762310046_);fill:url(#SVGID_00000000184677145779612390000011794993727710486707_);" width="48.27" height="43.22"/>
</g>
<g>
	<defs>
		<path id="SVGID_00000170975002694939844970000015839827902541357500_" d="M153.14,192.31l34.77-31.52
			c2.14-1.93,2.01-4.96-0.28-6.77l-4.43-3.48l-42.5,38.52l4.43,3.48C147.42,194.35,151,194.24,153.14,192.31"/>
	</defs>
	<clipPath id="SVGID_00000178175532262017486270000010711259844011143301_">
		<use xlink:href="#SVGID_00000170975002694939844970000015839827902541357500_"  style="overflow:visible;"/>
	</clipPath>
	
		<linearGradient id="SVGID_00000047749608235387645710000002397198357512601987_" gradientUnits="userSpaceOnUse" x1="166.1554" y1="190.2075" x2="163.2582" y2="124.8794">
		<stop  offset="0" style="stop-color:#35336A"/>
		<stop  offset="0.1" style="stop-color:#35336A"/>
		<stop  offset="0.83" style="stop-color:#4F71B6"/>
		<stop  offset="1" style="stop-color:#4F71B6"/>
	</linearGradient>
	
		<rect x="140.69" y="150.54" style="clip-path:url(#SVGID_00000178175532262017486270000010711259844011143301_);fill:url(#SVGID_00000047749608235387645710000002397198357512601987_);" width="49.35" height="43.81"/>
</g>
<g>
	<defs>
		<path id="SVGID_00000158029579746716230440000016769543200960620441_" d="M198.45,198.5L198.45,198.5
			c1.65-1.5,2.23-3.24,0.48-4.35l-27.06-18.84l-2.71,2.46l24.18,21.44C194.79,200.61,196.8,200,198.45,198.5"/>
	</defs>
	<clipPath id="SVGID_00000006706483341483628590000017619873007609141122_">
		<use xlink:href="#SVGID_00000158029579746716230440000016769543200960620441_"  style="overflow:visible;"/>
	</clipPath>
	
		<linearGradient id="SVGID_00000094591524983630072570000007826441595635703705_" gradientUnits="userSpaceOnUse" x1="184.9931" y1="189.5097" x2="182.119" y2="124.9444">
		<stop  offset="0" style="stop-color:#35336A"/>
		<stop  offset="0.1" style="stop-color:#35336A"/>
		<stop  offset="0.83" style="stop-color:#4F71B6"/>
		<stop  offset="1" style="stop-color:#4F71B6"/>
	</linearGradient>
	
		<rect x="169.17" y="175.32" style="clip-path:url(#SVGID_00000006706483341483628590000017619873007609141122_);fill:url(#SVGID_00000094591524983630072570000007826441595635703705_);" width="31.52" height="25.29"/>
</g>
<g>
	<defs>
		<path id="SVGID_00000157282276030342177090000006852517177634270361_" d="M149.28,121.76c-5.51,0-9.97-3.77-9.97-8.42
			c0,4.65-4.46,8.42-9.97,8.42c5.51,0,9.97,3.77,9.97,8.42C139.31,125.53,143.77,121.76,149.28,121.76"/>
	</defs>
	<clipPath id="SVGID_00000152963935291669701530000012158670190244177059_">
		<use xlink:href="#SVGID_00000157282276030342177090000006852517177634270361_"  style="overflow:visible;"/>
	</clipPath>
	
		<linearGradient id="SVGID_00000116202765031153890160000013927770148589488266_" gradientUnits="userSpaceOnUse" x1="142.9363" y1="203.3371" x2="139.5166" y2="126.5166">
		<stop  offset="0" style="stop-color:#35336A"/>
		<stop  offset="0.1" style="stop-color:#35336A"/>
		<stop  offset="0.83" style="stop-color:#4F71B6"/>
		<stop  offset="1" style="stop-color:#4F71B6"/>
	</linearGradient>
	
		<rect x="129.33" y="113.35" style="clip-path:url(#SVGID_00000152963935291669701530000012158670190244177059_);fill:url(#SVGID_00000116202765031153890160000013927770148589488266_);" width="19.94" height="16.83"/>
</g>
<g>
	<defs>
		<path id="SVGID_00000049184748460897672020000001986271431663603646_" d="M169.61,127.2c-3.64,0-6.59-2.49-6.59-5.56
			c0,3.07-2.95,5.56-6.58,5.56c3.64,0,6.58,2.49,6.58,5.56C163.03,129.69,165.98,127.2,169.61,127.2"/>
	</defs>
	<clipPath id="SVGID_00000022557992856142687380000005163207413535747485_">
		<use xlink:href="#SVGID_00000049184748460897672020000001986271431663603646_"  style="overflow:visible;"/>
	</clipPath>
	
		<linearGradient id="SVGID_00000048485378949626230050000007542167717945253037_" gradientUnits="userSpaceOnUse" x1="165.8746" y1="191.0659" x2="162.9253" y2="124.923">
		<stop  offset="0" style="stop-color:#35336A"/>
		<stop  offset="0.1" style="stop-color:#35336A"/>
		<stop  offset="0.83" style="stop-color:#4F71B6"/>
		<stop  offset="1" style="stop-color:#4F71B6"/>
	</linearGradient>
	
		<rect x="156.44" y="121.64" style="clip-path:url(#SVGID_00000022557992856142687380000005163207413535747485_);fill:url(#SVGID_00000048485378949626230050000007542167717945253037_);" width="13.17" height="11.12"/>
</g>
<g>
	<defs>
		<path id="SVGID_00000147903194091839343960000004264509269583556012_" d="M158.81,102.28c-3.64,0-6.59-2.49-6.59-5.57
			c0,3.07-2.95,5.57-6.59,5.57c3.64,0,6.59,2.49,6.59,5.56C152.22,104.77,155.17,102.28,158.81,102.28"/>
	</defs>
	<clipPath id="SVGID_00000049205044664914420650000011001112733030061720_">
		<use xlink:href="#SVGID_00000147903194091839343960000004264509269583556012_"  style="overflow:visible;"/>
	</clipPath>
	
		<linearGradient id="SVGID_00000001635619271357696820000018277029892843802812_" gradientUnits="userSpaceOnUse" x1="158.2484" y1="238.2168" x2="153.7865" y2="137.5766">
		<stop  offset="0" style="stop-color:#35336A"/>
		<stop  offset="0.1" style="stop-color:#35336A"/>
		<stop  offset="0.83" style="stop-color:#4F71B6"/>
		<stop  offset="1" style="stop-color:#4F71B6"/>
	</linearGradient>
	
		<rect x="145.63" y="96.71" style="clip-path:url(#SVGID_00000049205044664914420650000011001112733030061720_);fill:url(#SVGID_00000001635619271357696820000018277029892843802812_);" width="13.18" height="11.13"/>
</g>
<g>
	<defs>
		<path id="SVGID_00000042700310348802662930000011724354389219943088_" d="M148.83,136.49c-9.35-0.64-14.32,0.14-23.23,2.07
			c-14.61,3.17-24.3,11.43-36.81,18.09c-14.7,7.82-31.25,11.66-48.63,11.66c-15.8,0-27.51-2.41-35.66-14.88
			c-3.54-5.42-4.16-18.74-0.36-26.2c-6.84,10.74-4.94,27.54,3.56,37.06c8.98,10.05,22.3,11.3,35.9,11.86
			c10.31,0.43,19.45-0.94,29.49-2.86c6.89-1.32,14.06-3.13,21.07-3.75c7.16-0.63,15.52-1.61,22.2,0.96
			c6.9,2.66,11.24,6.86,13.67,12.69l44.17-39.43C167.28,140.99,156.86,137.04,148.83,136.49"/>
	</defs>
	<clipPath id="SVGID_00000024693431246787748740000013968081624228444836_">
		<use xlink:href="#SVGID_00000042700310348802662930000011724354389219943088_"  style="overflow:visible;"/>
	</clipPath>
	
		<linearGradient id="SVGID_00000178183313364508919540000016993498551429821371_" gradientUnits="userSpaceOnUse" x1="87.4797" y1="194.3041" x2="84.5483" y2="127.4097">
		<stop  offset="0" style="stop-color:#35336A"/>
		<stop  offset="0.1" style="stop-color:#35336A"/>
		<stop  offset="0.83" style="stop-color:#4F71B6"/>
		<stop  offset="1" style="stop-color:#4F71B6"/>
	</linearGradient>
	
		<rect x="-2.69" y="127.24" style="clip-path:url(#SVGID_00000024693431246787748740000013968081624228444836_);fill:url(#SVGID_00000178183313364508919540000016993498551429821371_);" width="176.91" height="55.96"/>
</g>
</svg>
