<?xml version="1.0" encoding="utf-8"?>
<!-- Generator: Adobe Illustrator 27.3.1, SVG Export Plug-In . SVG Version: 6.00 Build 0)  -->
<svg version="1.1" id="Layer_1" xmlns="http://www.w3.org/2000/svg" xmlns:xlink="http://www.w3.org/1999/xlink" x="0px" y="0px"
	 viewBox="0 0 300 300" style="enable-background:new 0 0 300 300;" xml:space="preserve">
<style type="text/css">
	
		.st0{clip-path:url(#SVGID_00000033365096807905580790000008917458379419016849_);fill:url(#SVGID_00000087406397475480110570000008971410889222311040_);}
	
		.st1{clip-path:url(#SVGID_00000075151228538562840590000017631801958911551666_);fill:url(#SVGID_00000100348076936245149330000005137981374541673609_);}
	
		.st2{clip-path:url(#SVGID_00000138541264060501936230000007064813351019158437_);fill:url(#SVGID_00000034050162894259830630000000575330309028265888_);}
	
		.st3{clip-path:url(#SVGID_00000072246773107291497920000007612851358509009072_);fill:url(#SVGID_00000155852493046434080740000013134038443116072360_);}
	
		.st4{clip-path:url(#SVGID_00000119826013730496695980000010738094683031189155_);fill:url(#SVGID_00000085950894407119499510000009993433846773800100_);}
	
		.st5{clip-path:url(#SVGID_00000124137726207869206980000009313861551146771073_);fill:url(#SVGID_00000024717004184296684300000009323000205817733309_);}
	
		.st6{clip-path:url(#SVGID_00000161620923780492833560000006329893248102906269_);fill:url(#SVGID_00000173120202408110739430000017454434583042730149_);}
	
		.st7{clip-path:url(#SVGID_00000110446346745989827250000015651489264357550527_);fill:url(#SVGID_00000177468544673797314120000012501142488072508824_);}
	
		.st8{clip-path:url(#SVGID_00000041266032342428372720000005657497611816269208_);fill:url(#SVGID_00000070804722197291979960000005296839233040305539_);}
	
		.st9{clip-path:url(#SVGID_00000036234792073794504620000011220570500639954873_);fill:url(#SVGID_00000042703337292172970200000018211892361501421211_);}
	.st10{fill:#34336A;}
	.st11{fill:#0093CC;}
</style>
<g>
	<defs>
		<path id="SVGID_1_" d="M146.49,172.35v19.84c6.21,0.48,13.45,0.85,18.64,4.54c4,2.85,6.64,6.35,8.16,10.57v-30.13
			c-4.55-1.55-10.57-2.01-14.02-3.63C155.38,171.7,150.84,171.83,146.49,172.35 M173.28,133.87V33.85L146.49,0v149.81
			c8.39-6.33,18.05-13.21,26.21-15.77C172.91,133.98,173.09,133.93,173.28,133.87z"/>
	</defs>
	<clipPath id="SVGID_00000153674693527444395280000003346048740553298365_">
		<use xlink:href="#SVGID_1_"  style="overflow:visible;"/>
	</clipPath>
	
		<linearGradient id="SVGID_00000140715132688689909990000004402934762942598062_" gradientUnits="userSpaceOnUse" x1="114.2097" y1="193.617" x2="196.6459" y2="31.2384">
		<stop  offset="0" style="stop-color:#0393CA"/>
		<stop  offset="0.14" style="stop-color:#008BD1"/>
		<stop  offset="0.88" style="stop-color:#00B4AC"/>
		<stop  offset="1" style="stop-color:#40BFC1"/>
	</linearGradient>
	
		<rect x="146.49" style="clip-path:url(#SVGID_00000153674693527444395280000003346048740553298365_);fill:url(#SVGID_00000140715132688689909990000004402934762942598062_);" width="26.8" height="207.3"/>
</g>
<g>
	<defs>
		<path id="SVGID_00000064331242883126803220000002352220925721377157_" d="M111.74,180.31v12.17c5.21,0.44,10.47,0.43,15.73,0.2
			c3.62-0.16,7.36-0.45,11.07-0.59v-18.49c-4.5,0.97-9.03,2.5-13.42,3.72C120.53,178.61,116.18,179.68,111.74,180.31 M138.54,155.84
			V51.91l-26.8,33.85v82.67c9.01-1.97,17.55-5.77,25.35-11.51C137.56,156.58,138.05,156.21,138.54,155.84z"/>
	</defs>
	<clipPath id="SVGID_00000052080790276354522300000002891190789249223865_">
		<use xlink:href="#SVGID_00000064331242883126803220000002352220925721377157_"  style="overflow:visible;"/>
	</clipPath>
	
		<linearGradient id="SVGID_00000050638199753714888010000003879000880543585691_" gradientUnits="userSpaceOnUse" x1="76.6897" y1="187.2898" x2="159.029" y2="77.0347">
		<stop  offset="0" style="stop-color:#0393CA"/>
		<stop  offset="0.14" style="stop-color:#008BD1"/>
		<stop  offset="0.88" style="stop-color:#00B4AC"/>
		<stop  offset="1" style="stop-color:#40BFC1"/>
	</linearGradient>
	
		<rect x="111.74" y="51.91" style="clip-path:url(#SVGID_00000052080790276354522300000002891190789249223865_);fill:url(#SVGID_00000050638199753714888010000003879000880543585691_);" width="26.8" height="141.01"/>
</g>
<g>
	<defs>
		<path id="SVGID_00000033337371441123580820000003049606252824151180_" d="M77.19,173.83v5.34c5.99,6.88,14.37,9.41,23.55,11.6
			c1.08,0.26,2.17,0.49,3.25,0.69v-10.55c-0.71,0.01-1.41,0.02-2.13,0C92.93,180.67,84.14,179.91,77.19,173.83 M98.93,170.03
			c1.7-0.04,3.38-0.15,5.06-0.32V90.76l-26.8,33.85v39.63C83.03,169.22,90.21,170.26,98.93,170.03z"/>
	</defs>
	<clipPath id="SVGID_00000019658231890229888870000017836984482694888857_">
		<use xlink:href="#SVGID_00000033337371441123580820000003049606252824151180_"  style="overflow:visible;"/>
	</clipPath>
	
		<linearGradient id="SVGID_00000043458198238593216910000015172829821176846238_" gradientUnits="userSpaceOnUse" x1="42.1897" y1="177.5815" x2="124.2905" y2="115.7231">
		<stop  offset="0" style="stop-color:#0393CA"/>
		<stop  offset="0.14" style="stop-color:#008BD1"/>
		<stop  offset="0.88" style="stop-color:#00B4AC"/>
		<stop  offset="1" style="stop-color:#40BFC1"/>
	</linearGradient>
	
		<rect x="77.19" y="90.76" style="clip-path:url(#SVGID_00000019658231890229888870000017836984482694888857_);fill:url(#SVGID_00000043458198238593216910000015172829821176846238_);" width="26.8" height="100.7"/>
</g>
<g>
	<defs>
		<polygon id="SVGID_00000152252564400195446540000008535416741977801362_" points="186.03,194.75 222.44,154.82 219.72,149.95 
			181.08,192.32 		"/>
	</defs>
	<clipPath id="SVGID_00000041265813925988876020000006700109974944945307_">
		<use xlink:href="#SVGID_00000152252564400195446540000008535416741977801362_"  style="overflow:visible;"/>
	</clipPath>
	
		<linearGradient id="SVGID_00000136387446680683015300000017974355095555946668_" gradientUnits="userSpaceOnUse" x1="202.8915" y1="197.7834" x2="199.8741" y2="129.8335">
		<stop  offset="0" style="stop-color:#35336A"/>
		<stop  offset="0.1" style="stop-color:#35336A"/>
		<stop  offset="0.83" style="stop-color:#4F71B6"/>
		<stop  offset="1" style="stop-color:#4F71B6"/>
	</linearGradient>
	
		<rect x="181.08" y="149.95" style="clip-path:url(#SVGID_00000041265813925988876020000006700109974944945307_);fill:url(#SVGID_00000136387446680683015300000017974355095555946668_);" width="41.35" height="44.8"/>
</g>
<g>
	<defs>
		<path id="SVGID_00000008146191902046898010000005019097873364358825_" d="M197.97,199.32l29.78-32.67c1.83-2,1.72-5.14-0.24-7.01
			l-3.79-3.61l-36.41,39.93l3.79,3.61C193.07,201.44,196.14,201.33,197.97,199.32"/>
	</defs>
	<clipPath id="SVGID_00000058580694051575475330000004689306975946300048_">
		<use xlink:href="#SVGID_00000008146191902046898010000005019097873364358825_"  style="overflow:visible;"/>
	</clipPath>
	
		<linearGradient id="SVGID_00000065066696924045464270000002956582321470508722_" gradientUnits="userSpaceOnUse" x1="209.2586" y1="196.9955" x2="206.2804" y2="129.8428">
		<stop  offset="0" style="stop-color:#35336A"/>
		<stop  offset="0.1" style="stop-color:#35336A"/>
		<stop  offset="0.83" style="stop-color:#4F71B6"/>
		<stop  offset="1" style="stop-color:#4F71B6"/>
	</linearGradient>
	
		<rect x="187.31" y="156.04" style="clip-path:url(#SVGID_00000058580694051575475330000004689306975946300048_);fill:url(#SVGID_00000065066696924045464270000002956582321470508722_);" width="42.27" height="45.4"/>
</g>
<g>
	<defs>
		<path id="SVGID_00000041997456334480319780000012737612450325035674_" d="M236.79,205.75L236.79,205.75
			c1.41-1.55,1.91-3.35,0.41-4.51l-23.18-19.52l-2.32,2.55l20.72,22.22C233.65,207.93,235.38,207.3,236.79,205.75"/>
	</defs>
	<clipPath id="SVGID_00000034782863273847753370000007009910755630971016_">
		<use xlink:href="#SVGID_00000041997456334480319780000012737612450325035674_"  style="overflow:visible;"/>
	</clipPath>
	
		<linearGradient id="SVGID_00000039813884898978539140000012510917863087976880_" gradientUnits="userSpaceOnUse" x1="225.2726" y1="196.4096" x2="222.3208" y2="130.0988">
		<stop  offset="0" style="stop-color:#35336A"/>
		<stop  offset="0.1" style="stop-color:#35336A"/>
		<stop  offset="0.83" style="stop-color:#4F71B6"/>
		<stop  offset="1" style="stop-color:#4F71B6"/>
	</linearGradient>
	
		<rect x="211.7" y="181.71" style="clip-path:url(#SVGID_00000034782863273847753370000007009910755630971016_);fill:url(#SVGID_00000039813884898978539140000012510917863087976880_);" width="27" height="26.21"/>
</g>
<g>
	<defs>
		<path id="SVGID_00000142856126313341341210000004686222460059382941_" d="M194.67,126.21c-4.72,0-8.54-3.91-8.54-8.72
			c0,4.82-3.82,8.72-8.54,8.72c4.72,0,8.54,3.91,8.54,8.72C186.12,130.11,189.95,126.21,194.67,126.21"/>
	</defs>
	<clipPath id="SVGID_00000018958756064992958520000016685139787126909573_">
		<use xlink:href="#SVGID_00000142856126313341341210000004686222460059382941_"  style="overflow:visible;"/>
	</clipPath>
	
		<linearGradient id="SVGID_00000160877790857177290610000015553604558475237296_" gradientUnits="userSpaceOnUse" x1="189.8532" y1="210.0211" x2="186.3397" y2="131.0899">
		<stop  offset="0" style="stop-color:#35336A"/>
		<stop  offset="0.1" style="stop-color:#35336A"/>
		<stop  offset="0.83" style="stop-color:#4F71B6"/>
		<stop  offset="1" style="stop-color:#4F71B6"/>
	</linearGradient>
	
		<rect x="177.58" y="117.48" style="clip-path:url(#SVGID_00000018958756064992958520000016685139787126909573_);fill:url(#SVGID_00000160877790857177290610000015553604558475237296_);" width="17.09" height="17.45"/>
</g>
<g>
	<defs>
		<path id="SVGID_00000026143696790488664320000011480156866626278814_" d="M212.08,131.84c-3.11,0-5.64-2.58-5.64-5.76
			c0,3.18-2.53,5.76-5.64,5.76c3.11,0,5.64,2.58,5.64,5.76C206.44,134.42,208.97,131.84,212.08,131.84"/>
	</defs>
	<clipPath id="SVGID_00000163043563806170053810000013799884607935345552_">
		<use xlink:href="#SVGID_00000026143696790488664320000011480156866626278814_"  style="overflow:visible;"/>
	</clipPath>
	
		<linearGradient id="SVGID_00000171719397441136528730000013715231960185335949_" gradientUnits="userSpaceOnUse" x1="209.3695" y1="197.4608" x2="206.3392" y2="129.5014">
		<stop  offset="0" style="stop-color:#35336A"/>
		<stop  offset="0.1" style="stop-color:#35336A"/>
		<stop  offset="0.83" style="stop-color:#4F71B6"/>
		<stop  offset="1" style="stop-color:#4F71B6"/>
	</linearGradient>
	
		<rect x="200.8" y="126.08" style="clip-path:url(#SVGID_00000163043563806170053810000013799884607935345552_);fill:url(#SVGID_00000171719397441136528730000013715231960185335949_);" width="11.28" height="11.52"/>
</g>
<g>
	<defs>
		<path id="SVGID_00000113317412607068944580000013758152642227077025_" d="M202.83,106.01c-3.12,0-5.64-2.58-5.64-5.77
			c0,3.19-2.53,5.77-5.65,5.77c3.12,0,5.65,2.58,5.65,5.77C197.19,108.59,199.72,106.01,202.83,106.01"/>
	</defs>
	<clipPath id="SVGID_00000016056435825396493520000011025650285821305750_">
		<use xlink:href="#SVGID_00000113317412607068944580000013758152642227077025_"  style="overflow:visible;"/>
	</clipPath>
	
		<linearGradient id="SVGID_00000054965548781981825720000016004604172933717125_" gradientUnits="userSpaceOnUse" x1="203.3799" y1="245.6886" x2="198.7952" y2="142.2795">
		<stop  offset="0" style="stop-color:#35336A"/>
		<stop  offset="0.1" style="stop-color:#35336A"/>
		<stop  offset="0.83" style="stop-color:#4F71B6"/>
		<stop  offset="1" style="stop-color:#4F71B6"/>
	</linearGradient>
	
		<rect x="191.54" y="100.24" style="clip-path:url(#SVGID_00000016056435825396493520000011025650285821305750_);fill:url(#SVGID_00000054965548781981825720000016004604172933717125_);" width="11.29" height="11.54"/>
</g>
<g>
	<defs>
		<path id="SVGID_00000120553514918094984070000012730747295684484238_" d="M194.29,141.47c-8.01-0.67-12.27,0.14-19.9,2.15
			c-12.52,3.29-20.82,11.85-31.53,18.75c-12.59,8.11-26.77,12.09-41.65,12.09c-13.54,0-23.57-2.5-30.55-15.42
			c-3.03-5.62-3.56-19.42-0.31-27.16c-5.86,11.13-4.23,28.55,3.05,38.41c7.69,10.42,19.1,11.71,30.75,12.3
			c8.83,0.44,16.66-0.97,25.27-2.96c5.9-1.36,12.04-3.24,18.05-3.89c6.13-0.66,13.3-1.67,19.02,1c5.91,2.75,9.63,7.11,11.71,13.15
			l37.84-40.87C210.09,146.13,201.16,142.04,194.29,141.47"/>
	</defs>
	<clipPath id="SVGID_00000132050071436833953730000008389756358553382028_">
		<use xlink:href="#SVGID_00000120553514918094984070000012730747295684484238_"  style="overflow:visible;"/>
	</clipPath>
	
		<linearGradient id="SVGID_00000142135507945175845580000007492847717706293401_" gradientUnits="userSpaceOnUse" x1="141.9966" y1="200.5383" x2="139.0224" y2="132.6669">
		<stop  offset="0" style="stop-color:#35336A"/>
		<stop  offset="0.1" style="stop-color:#35336A"/>
		<stop  offset="0.83" style="stop-color:#4F71B6"/>
		<stop  offset="1" style="stop-color:#4F71B6"/>
	</linearGradient>
	
		<rect x="64.48" y="131.88" style="clip-path:url(#SVGID_00000132050071436833953730000008389756358553382028_);fill:url(#SVGID_00000142135507945175845580000007492847717706293401_);" width="151.55" height="58.01"/>
</g>
<polygon class="st10" points="263.01,220.01 274.69,220.01 274.69,261.85 300,261.85 300,271.57 263.01,271.57 "/>
<path class="st10" d="M237.14,251.46l-8-19.74l-8,19.74H237.14z M240.82,260.52h-23.44l-4.47,11.05h-11.97l22.5-51.56h11.54
	l22.57,51.56h-12.26L240.82,260.52z"/>
<path class="st10" d="M165.39,229v12.15H177c2.88,0,5.07-0.52,6.56-1.55c1.49-1.03,2.24-2.55,2.24-4.57c0-2.01-0.75-3.52-2.24-4.53
	c-1.49-1.01-3.68-1.51-6.56-1.51H165.39z M179.02,262.58c3.08,0,5.4-0.52,6.96-1.55c1.56-1.03,2.34-2.63,2.34-4.79
	c0-4.27-3.1-6.41-9.3-6.41h-13.63v12.74H179.02z M190.85,244.76c2.88,0.93,5.14,2.49,6.78,4.68c1.64,2.18,2.45,4.87,2.45,8.06
	c0,4.52-1.72,7.99-5.16,10.42c-3.44,2.43-8.45,3.65-15.04,3.65h-26.11v-51.56h24.66c6.15,0,10.88,1.2,14.17,3.61
	c3.29,2.41,4.94,5.67,4.94,9.8c0,2.5-0.59,4.74-1.77,6.7C194.61,242.08,192.97,243.63,190.85,244.76z"/>
<path class="st10" d="M120.71,262.29c2.98,0,5.67-0.7,8.08-2.1c2.4-1.4,4.29-3.35,5.66-5.86c1.37-2.5,2.06-5.35,2.06-8.54
	c0-3.19-0.69-6.04-2.06-8.54c-1.37-2.5-3.26-4.46-5.66-5.86c-2.4-1.4-5.1-2.1-8.08-2.1c-2.98,0-5.67,0.7-8.08,2.1
	c-2.4,1.4-4.29,3.35-5.66,5.86c-1.37,2.5-2.06,5.35-2.06,8.54c0,3.19,0.69,6.04,2.06,8.54c1.37,2.5,3.26,4.46,5.66,5.86
	C115.03,261.59,117.73,262.29,120.71,262.29 M120.71,272.45c-5.24,0-9.96-1.15-14.17-3.46c-4.21-2.31-7.5-5.49-9.88-9.54
	c-2.38-4.05-3.57-8.6-3.57-13.66c0-5.06,1.19-9.61,3.57-13.66c2.38-4.05,5.67-7.23,9.88-9.54c4.21-2.31,8.93-3.46,14.17-3.46
	c5.24,0,9.95,1.15,14.13,3.46c4.18,2.31,7.48,5.49,9.88,9.54c2.4,4.05,3.61,8.61,3.61,13.66c0,5.06-1.2,9.61-3.61,13.66
	c-2.4,4.05-5.7,7.23-9.88,9.54C130.66,271.3,125.95,272.45,120.71,272.45z"/>
<polygon class="st10" points="54.35,220.01 66.03,220.01 66.03,261.85 91.35,261.85 91.35,271.57 54.35,271.57 "/>
<path class="st10" d="M37.28,244.98h10.67v20.92c-2.74,2.11-5.91,3.73-9.52,4.86c-3.61,1.13-7.24,1.69-10.89,1.69
	c-5.24,0-9.95-1.14-14.13-3.42c-4.18-2.28-7.46-5.45-9.84-9.5C1.19,255.48,0,250.9,0,245.79c0-5.11,1.19-9.69,3.57-13.74
	c2.38-4.05,5.69-7.22,9.92-9.5c4.23-2.28,8.99-3.42,14.28-3.42c4.42,0,8.44,0.76,12.04,2.28c3.61,1.52,6.63,3.73,9.09,6.63
	l-7.5,7.07c-3.61-3.88-7.96-5.82-13.05-5.82c-3.22,0-6.08,0.69-8.58,2.06c-2.5,1.37-4.45,3.31-5.84,5.82
	c-1.39,2.5-2.09,5.38-2.09,8.62c0,3.19,0.7,6.04,2.09,8.54c1.39,2.5,3.33,4.46,5.8,5.86c2.48,1.4,5.3,2.1,8.47,2.1
	c3.37,0,6.39-0.74,9.09-2.21V244.98z"/>
<path class="st11" d="M248.19,300c-0.88,0-1.74-0.12-2.56-0.37c-0.82-0.24-1.49-0.56-1.99-0.95l0.88-1.99
	c0.48,0.36,1.05,0.65,1.71,0.86c0.66,0.22,1.32,0.33,1.98,0.33c0.73,0,1.28-0.11,1.63-0.33c0.35-0.22,0.53-0.52,0.53-0.89
	c0-0.27-0.1-0.5-0.31-0.68c-0.21-0.18-0.47-0.32-0.8-0.43c-0.32-0.11-0.76-0.23-1.32-0.36c-0.85-0.21-1.55-0.41-2.09-0.62
	c-0.54-0.21-1.01-0.54-1.4-0.99c-0.39-0.46-0.58-1.07-0.58-1.83c0-0.66,0.18-1.26,0.53-1.8c0.35-0.54,0.88-0.96,1.59-1.28
	c0.71-0.32,1.57-0.47,2.59-0.47c0.71,0,1.41,0.09,2.09,0.26c0.68,0.17,1.28,0.42,1.79,0.75l-0.8,2.01c-1.03-0.6-2.06-0.9-3.1-0.9
	c-0.72,0-1.26,0.12-1.6,0.36c-0.35,0.24-0.52,0.55-0.52,0.95c0,0.39,0.2,0.68,0.6,0.87c0.4,0.19,1.01,0.38,1.83,0.56
	c0.85,0.21,1.55,0.41,2.09,0.62c0.54,0.21,1.01,0.53,1.4,0.98c0.39,0.45,0.58,1.05,0.58,1.81c0,0.65-0.18,1.25-0.53,1.79
	c-0.36,0.54-0.89,0.96-1.6,1.28C250.08,299.84,249.22,300,248.19,300 M234.77,288.39h2.59v11.41h-2.59V288.39z M229.32,288.39
	l-4.84,11.41h-2.55l-4.82-11.41h2.79l3.4,8.15l3.45-8.15H229.32z M209.4,292.53c0-0.64-0.2-1.13-0.61-1.48
	c-0.4-0.34-0.99-0.51-1.77-0.51h-2.11v3.98h2.11c0.78,0,1.37-0.17,1.77-0.52C209.2,293.65,209.4,293.16,209.4,292.53z M209.45,299.8
	l-2.15-3.18h-0.13h-2.25v3.18h-2.59v-11.41h4.84c0.99,0,1.85,0.17,2.58,0.51c0.73,0.34,1.29,0.82,1.68,1.43
	c0.39,0.62,0.59,1.35,0.59,2.2c0,0.85-0.2,1.58-0.6,2.19c-0.4,0.61-0.97,1.08-1.7,1.41l2.51,3.67H209.45z M195.75,297.68v2.12h-8.65
	v-11.41h8.45v2.12h-5.87v2.48h5.19v2.05h-5.19v2.64H195.75z M176.07,300c-0.88,0-1.74-0.12-2.56-0.37
	c-0.82-0.24-1.49-0.56-1.99-0.95l0.88-1.99c0.48,0.36,1.05,0.65,1.71,0.86c0.66,0.22,1.32,0.33,1.98,0.33
	c0.73,0,1.28-0.11,1.63-0.33c0.35-0.22,0.53-0.52,0.53-0.89c0-0.27-0.1-0.5-0.31-0.68c-0.21-0.18-0.47-0.32-0.8-0.43
	c-0.32-0.11-0.76-0.23-1.32-0.36c-0.85-0.21-1.55-0.41-2.09-0.62c-0.54-0.21-1.01-0.54-1.4-0.99c-0.39-0.46-0.58-1.07-0.58-1.83
	c0-0.66,0.18-1.26,0.53-1.8c0.35-0.54,0.88-0.96,1.59-1.28c0.71-0.32,1.57-0.47,2.59-0.47c0.71,0,1.41,0.09,2.09,0.26
	c0.68,0.17,1.28,0.42,1.79,0.75l-0.8,2.01c-1.03-0.6-2.06-0.9-3.1-0.9c-0.72,0-1.26,0.12-1.6,0.36c-0.35,0.24-0.52,0.55-0.52,0.95
	c0,0.39,0.2,0.68,0.6,0.87c0.4,0.19,1.01,0.38,1.83,0.56c0.85,0.21,1.55,0.41,2.09,0.62c0.54,0.21,1.01,0.53,1.4,0.98
	c0.39,0.45,0.58,1.05,0.58,1.81c0,0.65-0.18,1.25-0.53,1.79c-0.36,0.54-0.89,0.96-1.6,1.28C177.96,299.84,177.09,300,176.07,300z
	 M153.16,295.35l-1.77-4.37l-1.77,4.37H153.16z M153.97,297.36h-5.19l-0.99,2.45h-2.65l4.98-11.41h2.55l5,11.41h-2.71L153.97,297.36
	z M139.45,288.39v11.41h-2.12l-5.57-6.93v6.93h-2.55v-11.41h2.14l5.56,6.93v-6.93H139.45z M122.62,297.68v2.12h-8.65v-11.41h8.44
	v2.12h-5.87v2.48h5.19v2.05h-5.19v2.64H122.62z M102.87,300c-0.76,0-1.45-0.14-2.08-0.43c-0.63-0.29-1.15-0.7-1.56-1.23l1.44-1.76
	c0.61,0.84,1.3,1.26,2.08,1.26c1.05,0,1.58-0.63,1.58-1.89v-5.43h-3.93v-2.12h6.5v7.4c0,1.4-0.34,2.45-1.02,3.16
	C105.19,299.65,104.19,300,102.87,300z M91.06,288.39h2.59v11.41h-2.59V288.39z M81.79,293.92h2.36v4.63
	c-0.61,0.47-1.31,0.83-2.11,1.08c-0.8,0.25-1.6,0.38-2.41,0.38c-1.16,0-2.2-0.25-3.13-0.76c-0.93-0.51-1.65-1.21-2.18-2.1
	c-0.53-0.9-0.79-1.91-0.79-3.04c0-1.13,0.26-2.14,0.79-3.04c0.53-0.9,1.26-1.6,2.2-2.1c0.94-0.51,1.99-0.76,3.16-0.76
	c0.98,0,1.87,0.17,2.67,0.51c0.8,0.34,1.47,0.83,2.01,1.47l-1.66,1.57c-0.8-0.86-1.76-1.29-2.89-1.29c-0.71,0-1.35,0.15-1.9,0.46
	c-0.55,0.3-0.98,0.73-1.29,1.29c-0.31,0.55-0.46,1.19-0.46,1.91c0,0.71,0.15,1.34,0.46,1.89c0.31,0.55,0.74,0.99,1.29,1.3
	c0.55,0.31,1.17,0.46,1.88,0.46c0.74,0,1.42-0.16,2.01-0.49V293.92z M64.48,288.39h2.59v11.41h-2.59V288.39z M57.31,288.39v11.41
	h-2.59v-4.68h-5.08v4.68h-2.59v-11.41h2.59v4.5h5.08v-4.5H57.31z"/>
</svg>
